<svg width="175" height="44" viewBox="0 0 175 44" fill="none" xmlns="http://www.w3.org/2000/svg">
<rect width="48" height="44" rx="6" fill="#FF7D34"/>
<path d="M16.194 15.364V28H13.116V15.364H16.194ZM28.0546 19.432C28.0546 20.164 27.8866 20.836 27.5506 21.448C27.2146 22.048 26.6986 22.534 26.0026 22.906C25.3066 23.278 24.4426 23.464 23.4106 23.464H21.5026V28H18.4246V15.364H23.4106C24.4186 15.364 25.2706 15.538 25.9666 15.886C26.6626 16.234 27.1846 16.714 27.5326 17.326C27.8806 17.938 28.0546 18.64 28.0546 19.432ZM23.1766 21.016C23.7646 21.016 24.2026 20.878 24.4906 20.602C24.7786 20.326 24.9226 19.936 24.9226 19.432C24.9226 18.928 24.7786 18.538 24.4906 18.262C24.2026 17.986 23.7646 17.848 23.1766 17.848H21.5026V21.016H23.1766ZM32.735 25.624H36.767V28H29.657V15.364H32.735V25.624Z" fill="#EEF0FF"/>
<path d="M68.766 22.02C69.498 22.176 70.086 22.542 70.53 23.118C70.974 23.682 71.196 24.33 71.196 25.062C71.196 26.118 70.824 26.958 70.08 27.582C69.348 28.194 68.322 28.5 67.002 28.5H61.116V15.864H66.804C68.088 15.864 69.09 16.158 69.81 16.746C70.542 17.334 70.908 18.132 70.908 19.14C70.908 19.884 70.71 20.502 70.314 20.994C69.93 21.486 69.414 21.828 68.766 22.02ZM64.194 20.976H66.21C66.714 20.976 67.098 20.868 67.362 20.652C67.638 20.424 67.776 20.094 67.776 19.662C67.776 19.23 67.638 18.9 67.362 18.672C67.098 18.444 66.714 18.33 66.21 18.33H64.194V20.976ZM66.462 26.016C66.978 26.016 67.374 25.902 67.65 25.674C67.938 25.434 68.082 25.092 68.082 24.648C68.082 24.204 67.932 23.856 67.632 23.604C67.344 23.352 66.942 23.226 66.426 23.226H64.194V26.016H66.462ZM76.0592 18.33V20.886H80.1812V23.262H76.0592V26.034H80.7212V28.5H72.9812V15.864H80.7212V18.33H76.0592ZM91.8095 15.864V18.33H88.4615V28.5H85.3835V18.33H82.0355V15.864H91.8095ZM102.444 15.864V18.33H99.0963V28.5H96.0183V18.33H92.6703V15.864H102.444ZM107.067 15.864V28.5H103.989V15.864H107.067ZM120.602 28.5H117.524L112.376 20.706V28.5H109.298V15.864H112.376L117.524 23.694V15.864H120.602V28.5ZM131.221 19.86C130.993 19.44 130.663 19.122 130.231 18.906C129.811 18.678 129.313 18.564 128.737 18.564C127.741 18.564 126.943 18.894 126.343 19.554C125.743 20.202 125.443 21.072 125.443 22.164C125.443 23.328 125.755 24.24 126.379 24.9C127.015 25.548 127.885 25.872 128.989 25.872C129.745 25.872 130.381 25.68 130.897 25.296C131.425 24.912 131.809 24.36 132.049 23.64H128.143V21.372H134.839V24.234C134.611 25.002 134.221 25.716 133.669 26.376C133.129 27.036 132.439 27.57 131.599 27.978C130.759 28.386 129.811 28.59 128.755 28.59C127.507 28.59 126.391 28.32 125.407 27.78C124.435 27.228 123.673 26.466 123.121 25.494C122.581 24.522 122.311 23.412 122.311 22.164C122.311 20.916 122.581 19.806 123.121 18.834C123.673 17.85 124.435 17.088 125.407 16.548C126.379 15.996 127.489 15.72 128.737 15.72C130.249 15.72 131.521 16.086 132.553 16.818C133.597 17.55 134.287 18.564 134.623 19.86H131.221ZM148.224 26.268H143.508L142.752 28.5H139.53L144.102 15.864H147.666L152.238 28.5H148.98L148.224 26.268ZM147.432 23.892L145.866 19.266L144.318 23.892H147.432ZM163.26 19.932C163.26 20.664 163.092 21.336 162.756 21.948C162.42 22.548 161.904 23.034 161.208 23.406C160.512 23.778 159.648 23.964 158.616 23.964H156.708V28.5H153.63V15.864H158.616C159.624 15.864 160.476 16.038 161.172 16.386C161.868 16.734 162.39 17.214 162.738 17.826C163.086 18.438 163.26 19.14 163.26 19.932ZM158.382 21.516C158.97 21.516 159.408 21.378 159.696 21.102C159.984 20.826 160.128 20.436 160.128 19.932C160.128 19.428 159.984 19.038 159.696 18.762C159.408 18.486 158.97 18.348 158.382 18.348H156.708V21.516H158.382ZM174.492 19.932C174.492 20.664 174.324 21.336 173.988 21.948C173.652 22.548 173.136 23.034 172.44 23.406C171.744 23.778 170.88 23.964 169.848 23.964H167.94V28.5H164.862V15.864H169.848C170.856 15.864 171.708 16.038 172.404 16.386C173.1 16.734 173.622 17.214 173.97 17.826C174.318 18.438 174.492 19.14 174.492 19.932ZM169.614 21.516C170.202 21.516 170.64 21.378 170.928 21.102C171.216 20.826 171.36 20.436 171.36 19.932C171.36 19.428 171.216 19.038 170.928 18.762C170.64 18.486 170.202 18.348 169.614 18.348H167.94V21.516H169.614Z" fill="#1C2132"/>
</svg>
